<?xml version="1.0" encoding="utf-8"?>
<!-- Generator: Adobe Illustrator 25.1.0, SVG Export Plug-In . SVG Version: 6.00 Build 0)  -->
<svg version="1.1" id="Layer_1" xmlns="http://www.w3.org/2000/svg" xmlns:xlink="http://www.w3.org/1999/xlink" x="0px" y="0px"
	 viewBox="0 0 1366 768" style="enable-background:new 0 0 1366 768;" xml:space="preserve">
<style type="text/css">
	.st0{fill:#002035;}
</style>
<path class="st0" d="M766,653"/>
<path class="st0" d="M0,0h610c180.43,173.33,295.53,192.6,369,174c36.15-9.15,54.22-25.45,101-35c110.47-22.54,213.88,26.7,286,74
	c0,130.48,1,358.52,1,489c-2.83,0.85,5,11-24-28c-23.39-31.46-46-47-95-51c-61.92-5.05-78,8-126,39c-43.85,28.32-125,10-158-9
	c-49.41-28.45-105-110-251-70c-116.58,31.94-149,72-231,49c-119.33-33.47-124.17-85.73-226-62c-28.36,6.61-27,3-124,50
	c-54.65,26.48-82.7,13.6-132-5V0z"/>
</svg>
