<?xml version="1.0" encoding="utf-8"?>
<!-- Generator: Adobe Illustrator 25.1.0, SVG Export Plug-In . SVG Version: 6.00 Build 0)  -->
<svg version="1.1" id="Layer_1" xmlns="http://www.w3.org/2000/svg" xmlns:xlink="http://www.w3.org/1999/xlink" x="0px" y="0px"
	 viewBox="0 0 1125 2436" style="enable-background:new 0 0 1125 2436;" xml:space="preserve">
<style type="text/css">
	.st0{fill:#002035;}
</style>
<path class="st0" d="M-0.5,0.5C181.17,0.5,287.33,0,469,0c20.95,23.2,166.68,187.78,301,185c33.95-0.7,108.75-49.04,149-52
	c136-10,146.64,50.6,207,80c0.33,738-0.83,1408.5-0.5,2146.5c-68.58-46.86-166.56-95.86-271-76c-63.17,12.01-65.59,37.21-128,61
	c-177.72,67.73-304.62-80.78-554-59c-50.25,4.39-108.25,15.93-172,41C0.17,1551.17-0.17,775.83-0.5,0.5z"/>
</svg>
